<?xml version="1.0" standalone="no"?><!DOCTYPE svg PUBLIC "-//W3C//DTD SVG 1.1//EN" "http://www.w3.org/Graphics/SVG/1.1/DTD/svg11.dtd"><svg class="icon" width="200px" height="174.15px" viewBox="0 0 1176 1024" version="1.1" xmlns="http://www.w3.org/2000/svg"><path d="M741.3248 256H434.688a25.6 25.6 0 0 1-24.7808-31.8208l51.2-204.8A25.6 25.6 0 0 1 485.7856 0h204.416a25.6 25.6 0 0 1 24.7808 19.3792l51.2 204.8A25.6 25.6 0 0 1 741.3248 256z m-273.92-51.2h241.1776l-38.4-153.6h-164.4288z m69.4016 358.4H230.272a25.6 25.6 0 0 1-24.7808-31.8208l51.2-204.8a25.6 25.6 0 0 1 24.6784-19.3792h204.416a25.6 25.6 0 0 1 24.7808 19.3792l51.2 204.8A25.6 25.6 0 0 1 536.8064 563.2z m-273.92-51.2h241.1776l-38.4-153.6h-164.3776z m682.7264 51.2H639.2064a25.6 25.6 0 0 1-24.7808-31.8208l51.2-204.8a25.6 25.6 0 0 1 24.576-19.3792h204.416a25.6 25.6 0 0 1 24.7808 19.3792l51.2 204.8A25.6 25.6 0 0 1 945.7408 563.2z m-273.92-51.2h241.4336l-38.4-153.6h-164.5568z m-339.2 358.4H25.856a25.6 25.6 0 0 1-24.7808-31.8208l51.2-204.8A25.6 25.6 0 0 1 76.9536 614.4h204.416a25.6 25.6 0 0 1 24.7808 19.3792l51.2 204.8A25.6 25.6 0 0 1 332.4928 870.4z m-273.92-51.2h241.1776l-38.4-153.6H96.9216z m682.7264 51.2H434.688a25.6 25.6 0 0 1-24.7808-31.8208l51.2-204.8a25.6 25.6 0 0 1 24.6784-19.3792h204.416a25.6 25.6 0 0 1 24.7808 19.3792l51.2 204.8A25.6 25.6 0 0 1 741.3248 870.4z m-273.92-51.2h241.2032l-38.4-153.6h-164.4288z m682.7264 51.2H843.52a25.6 25.6 0 0 1-24.7808-31.8208l51.2-204.8a25.6 25.6 0 0 1 24.704-19.3792h204.416a25.6 25.6 0 0 1 24.7808 19.3792l51.2 204.8A25.6 25.6 0 0 1 1150.1568 870.4z m-273.92-51.2h241.2288l-38.4-153.6h-164.4288z m299.52 204.8H0.3072v-51.2h1175.3984v51.2z" /></svg>